<svg width="20" height="20" viewBox="0 0 20 20" fill="none" xmlns="http://www.w3.org/2000/svg">
<g clip-path="url(#clip0_57_5)">
<path d="M4.58337 17.5C4.58337 17.942 4.75897 18.3659 5.07153 18.6785C5.38409 18.9911 5.80801 19.1667 6.25004 19.1667C6.69207 19.1667 7.11599 18.9911 7.42855 18.6785C7.74111 18.3659 7.91671 17.942 7.91671 17.5M10.4167 17.5C10.4167 17.942 10.5923 18.3659 10.9049 18.6785C11.2174 18.9911 11.6413 19.1667 12.0834 19.1667C12.5254 19.1667 12.9493 18.9911 13.2619 18.6785C13.5744 18.3659 13.75 17.942 13.75 17.5M5.83337 6.25H18.75V6.45833L18.5509 6.69417C16.5265 9.09834 15.4164 12.1404 15.4167 15.2833V15.4167H4.58337V13.85C4.58337 12.1167 4.52837 10.385 4.26171 8.67333C3.80004 5.71 2.78087 1.25 0.833374 1.25" stroke="#FFFEFE" stroke-width="1.5"/>
</g>
<defs>
<clipPath id="clip0_57_5">
<rect width="20" height="20" fill="white"/>
</clipPath>
</defs>
</svg>
