<svg width="109" height="40" viewBox="0 0 109 40" fill="none" xmlns="http://www.w3.org/2000/svg">
<path d="M0.189226 35.6855L0 18.3678L7.15372 18.2896C8.45028 18.2755 9.57207 18.5169 10.519 19.014C11.4716 19.5053 12.2093 20.1992 12.7321 21.0956C13.2549 21.9863 13.5228 23.0264 13.5358 24.2158C13.5489 25.411 13.2981 26.4595 12.7837 27.3616C12.2748 28.258 11.541 28.9566 10.5824 29.4576C9.62379 29.9586 8.48209 30.2163 7.15733 30.2308L2.74335 30.279L2.7073 26.9812L6.34336 26.9414C6.97471 26.9346 7.50061 26.8189 7.92099 26.5944C8.34703 26.3699 8.66784 26.0591 8.88338 25.6621C9.09886 25.2594 9.20371 24.7932 9.19791 24.2632C9.19206 23.7277 9.07709 23.2666 8.85299 22.8801C8.62881 22.4879 8.30134 22.187 7.87058 21.9775C7.43978 21.7679 6.91153 21.6666 6.2858 21.6734L4.22257 21.696L4.3749 35.6398L0.189226 35.6855ZM19.6685 18.1529L19.8577 35.4706L15.7227 35.5158L15.5335 18.1981L19.6685 18.1529ZM26.1534 35.6217C25.3248 35.6307 24.5876 35.5007 23.9419 35.2315C23.3018 34.9566 22.7927 34.5393 22.4144 33.9796C22.0418 33.4142 21.8508 32.7031 21.8414 31.8463C21.8335 31.1247 21.9537 30.5145 22.202 30.0156C22.4502 29.5168 22.7953 29.1099 23.2373 28.795C23.6793 28.48 24.1897 28.2405 24.7686 28.0763C25.3474 27.9065 25.9664 27.7898 26.6253 27.7262C27.3631 27.6505 27.957 27.5735 28.4072 27.4953C28.8573 27.4115 29.1831 27.298 29.3845 27.1548C29.5915 27.006 29.6935 26.7991 29.6906 26.5341L29.6901 26.4919C29.6854 26.0578 29.5323 25.724 29.231 25.4905C28.9296 25.257 28.5253 25.143 28.0179 25.1486C27.4711 25.1545 27.0327 25.2777 26.7026 25.5181C26.3726 25.7585 26.1648 26.0878 26.0792 26.5059L22.2641 26.4123C22.3682 25.6219 22.6508 24.914 23.1119 24.2888C23.5786 23.6579 24.2216 23.1604 25.0407 22.7962C25.8655 22.4264 26.8585 22.2351 28.0197 22.2224C28.8484 22.2134 29.6134 22.3037 30.3145 22.4933C31.0156 22.6774 31.6276 22.9526 32.1503 23.319C32.6729 23.6797 33.0781 24.1263 33.3658 24.6588C33.6591 25.1912 33.8096 25.8013 33.8171 26.489L33.9135 35.317L30.0238 35.3595L30.0041 33.5499L29.9026 33.5511C29.6763 33.9933 29.3844 34.3686 29.0269 34.6769C28.6751 34.9852 28.2576 35.2181 27.7745 35.3756C27.2969 35.5331 26.7566 35.6151 26.1534 35.6217ZM27.4007 32.9018C27.8461 32.897 28.2453 32.8024 28.5985 32.6181C28.9573 32.4338 29.2421 32.1826 29.4529 31.8646C29.6636 31.5409 29.7666 31.1677 29.762 30.7449L29.7485 29.5103C29.6308 29.5736 29.4876 29.6316 29.3191 29.6841C29.1562 29.7367 28.9763 29.7866 28.7795 29.8338C28.5827 29.8811 28.3801 29.9228 28.172 29.9589C27.9637 29.9949 27.7639 30.0282 27.5726 30.0584C27.1843 30.1247 26.8527 30.2241 26.5779 30.3568C26.3088 30.4894 26.102 30.6609 25.9577 30.871C25.819 31.0755 25.7512 31.3187 25.7543 31.6006C25.759 32.029 25.9148 32.3543 26.2216 32.5765C26.5341 32.7985 26.9272 32.907 27.4007 32.9018ZM40.4959 27.8368L40.577 35.2442L36.442 35.2894L36.2999 22.3011L40.2321 22.2581L40.2581 24.6427L40.4017 24.6411C40.6804 23.8431 41.1641 23.2149 41.8528 22.7563C42.5412 22.2921 43.3643 22.0548 44.3227 22.0443C45.2358 22.0343 46.0302 22.2314 46.7055 22.6356C47.3865 23.0341 47.9171 23.5977 48.297 24.3265C48.6828 25.0496 48.8781 25.8988 48.883 26.8741L48.9734 35.1525L44.8384 35.1976L44.757 27.731C44.7547 27.0094 44.5653 26.4477 44.1888 26.0459C43.8182 25.644 43.3058 25.4466 42.6517 25.4538C42.2175 25.4585 41.8354 25.5585 41.505 25.7538C41.1798 25.9434 40.9293 26.214 40.7526 26.5655C40.5818 26.9169 40.4962 27.3407 40.4959 27.8368ZM58.7231 22.0561L58.7562 25.1002L50.5626 25.1898L50.5291 22.1456L58.7231 22.0561ZM52.2116 19.0151L56.3466 18.9699L56.4779 30.9858C56.4805 31.2394 56.5226 31.4448 56.603 31.6017C56.6893 31.753 56.8117 31.8616 56.9702 31.9275C57.1287 31.9879 57.3181 32.0168 57.538 32.0144C57.6958 32.0127 57.8617 31.9967 58.0362 31.9666C58.2163 31.9309 58.3514 31.9012 58.4414 31.8776L59.0996 34.8558C58.9028 34.9143 58.6245 34.9878 58.2647 35.0763C57.9105 35.1647 57.4855 35.223 56.9895 35.2509C56.0206 35.3066 55.1879 35.2029 54.4914 34.9399C53.8008 34.6712 53.2691 34.2486 52.8963 33.6719C52.529 33.0952 52.3463 32.3671 52.3478 31.4876L52.2116 19.0151ZM66.9007 35.2018C65.5363 35.2167 64.3609 34.9505 63.3737 34.4031C62.3926 33.8501 61.6313 33.0747 61.0903 32.077C60.5552 31.0737 60.2802 29.9068 60.2657 28.5764C60.2512 27.2404 60.5005 26.0678 61.0136 25.0586C61.5327 24.0438 62.2765 23.252 63.2457 22.6832C64.2206 22.1088 65.3901 21.8141 66.7541 21.7992C68.1185 21.7843 69.2913 22.0534 70.2725 22.6064C71.2597 23.1538 72.0209 23.9292 72.556 24.9325C73.097 25.9302 73.3746 27.097 73.3895 28.433C73.404 29.7634 73.1517 30.9361 72.6327 31.9509C72.1195 32.9601 71.3754 33.7519 70.4009 34.3264C69.4316 34.8951 68.2648 35.1869 66.9007 35.2018ZM66.8918 32.0813C67.3881 32.0759 67.8064 31.9191 68.1468 31.6109C68.4873 31.3027 68.7448 30.8771 68.9193 30.334C69.0997 29.7907 69.1857 29.164 69.1779 28.4537C69.17 27.7321 69.0703 27.1017 68.8783 26.5626C68.6919 26.0234 68.4251 25.6035 68.078 25.3028C67.7308 25.0022 67.3093 24.8545 66.8129 24.8599C66.3002 24.8656 65.8678 25.0225 65.5158 25.3308C65.1698 25.639 64.9063 26.0647 64.7263 26.608C64.5518 27.1511 64.4684 27.7835 64.4766 28.5051C64.4844 29.2154 64.5812 29.8401 64.7676 30.3793C64.9596 30.9185 65.2319 31.3383 65.5847 31.6389C65.9433 31.9394 66.3791 32.0869 66.8918 32.0813ZM75.6313 39.7325L75.4359 21.8735L79.5288 21.8287L79.553 24.0526L79.6799 24.0513C79.8447 23.6548 80.0803 23.2717 80.3861 22.9019C80.6979 22.532 81.0949 22.2288 81.5771 21.9924C82.0649 21.7503 82.6499 21.6255 83.3319 21.6181C84.2342 21.6082 85.0796 21.8357 85.868 22.3007C86.6624 22.7656 87.3076 23.4887 87.8032 24.4699C88.2988 25.4511 88.5548 26.7056 88.5716 28.2333C88.5876 29.7046 88.3673 30.939 87.91 31.9362C87.4587 32.9334 86.841 33.6844 86.0574 34.1891C85.279 34.6938 84.4109 34.9513 83.4524 34.9618C82.7987 34.9689 82.2309 34.868 81.7494 34.659C81.2679 34.45 80.8616 34.1726 80.5308 33.8266C80.2056 33.4806 79.9537 33.1085 79.7744 32.7101L79.6899 32.711L79.7662 39.6871L75.6313 39.7325ZM79.5575 28.3234C79.5649 29.0224 79.6646 29.6302 79.8563 30.1468C80.0538 30.6633 80.3314 31.0634 80.6897 31.347C81.0536 31.6249 81.4864 31.7611 81.9883 31.7557C82.4954 31.7501 82.9252 31.6045 83.2772 31.3187C83.6295 31.0274 83.8926 30.6214 84.0675 30.1008C84.248 29.5801 84.3343 28.9703 84.3265 28.2712C84.319 27.5722 84.2193 26.9672 84.0277 26.4563C83.8416 25.9452 83.5696 25.5508 83.2113 25.2728C82.8586 24.9947 82.4259 24.8585 81.9128 24.8641C81.4056 24.8697 80.9759 25.0125 80.6239 25.2926C80.2715 25.5727 80.0025 25.9703 79.8164 26.4853C79.636 27.0004 79.5497 27.6131 79.5575 28.3234ZM90.8093 34.6953L90.6671 21.707L94.8021 21.6619L94.9442 34.6501L90.8093 34.6953ZM101.24 34.8012C100.411 34.8103 99.6741 34.6802 99.0282 34.411C98.3882 34.1361 97.8792 33.7188 97.5008 33.1592C97.1283 32.5938 96.9371 31.8827 96.9278 31.0258C96.92 30.3043 97.0402 29.694 97.2883 29.1952C97.5365 28.6963 97.8818 28.2894 98.3238 27.9745C98.7659 27.6596 99.276 27.4201 99.8549 27.2559C100.434 27.086 101.053 26.9694 101.712 26.9058C102.449 26.83 103.043 26.7531 103.494 26.6749C103.944 26.591 104.269 26.4775 104.471 26.3344C104.678 26.1855 104.78 25.9786 104.777 25.7137L104.776 25.6714C104.772 25.2373 104.619 24.9035 104.317 24.67C104.016 24.4365 103.612 24.3225 103.104 24.3281C102.557 24.3341 102.119 24.4573 101.789 24.6976C101.459 24.938 101.251 25.2673 101.166 25.6855L97.3505 25.5919C97.4547 24.8014 97.7374 24.0936 98.1984 23.4684C98.665 22.8375 99.308 22.3399 100.127 21.9758C100.952 21.6059 101.945 21.4147 103.106 21.402C103.935 21.3929 104.7 21.4832 105.401 21.6729C106.102 21.8569 106.714 22.1321 107.237 22.4985C107.759 22.8593 108.165 23.3059 108.452 23.8384C108.746 24.3708 108.896 24.9808 108.904 25.6686L109 34.4965L105.11 34.5391L105.091 32.7295L104.989 32.7306C104.763 33.1728 104.471 33.5481 104.113 33.8565C103.761 34.1648 103.344 34.3977 102.861 34.5552C102.383 34.7126 101.843 34.7946 101.24 34.8012ZM102.487 32.0814C102.932 32.0765 103.332 31.9819 103.685 31.7977C104.044 31.6134 104.328 31.3622 104.539 31.0441C104.75 30.7205 104.853 30.3472 104.848 29.9244L104.835 28.6899C104.717 28.7532 104.574 28.8111 104.406 28.8637C104.243 28.9162 104.063 28.9661 103.866 29.0134C103.669 29.0606 103.467 29.1023 103.258 29.1384C103.05 29.1745 102.85 29.2077 102.659 29.238C102.271 29.3042 101.939 29.4037 101.664 29.5364C101.395 29.669 101.188 29.8404 101.044 30.0506C100.905 30.2551 100.838 30.4982 100.841 30.7801C100.845 31.2085 101.001 31.5338 101.308 31.756C101.62 31.9781 102.014 32.0866 102.487 32.0814Z" fill="url(#paint0_linear_1409_768)"/>
<path d="M92.6784 8.09599C93.5044 8.08699 94.291 8.38019 94.8677 8.89813C95.4426 9.41461 95.76 10.1095 95.7678 10.8264C95.7756 11.5434 95.4735 12.245 94.9101 12.774C94.3449 13.3044 93.5647 13.6147 92.7387 13.6238C91.9126 13.6328 91.1261 13.3396 90.5493 12.8216C89.9745 12.3051 89.6571 11.6102 89.6493 10.8933C89.6415 10.1763 89.9436 9.4747 90.5069 8.94575C91.0721 8.41535 91.8524 8.10503 92.6784 8.09599ZM82.9228 13.9569C82.9343 15.0021 83.3975 15.9888 84.193 16.7034C84.9871 17.4166 86.0479 17.8033 87.1407 17.7913C87.6791 17.7855 88.1941 17.6824 88.6588 17.5047C88.8091 18.3148 89.2325 19.0601 89.8688 19.6315C90.6624 20.3447 91.7236 20.7314 92.8161 20.7195C93.9089 20.7075 94.9611 20.2978 95.7391 19.5674C96.3628 18.9822 96.7698 18.2278 96.9023 17.4146C97.3711 17.5821 97.8879 17.6739 98.4263 17.668C99.5191 17.6561 100.571 17.2463 101.349 16.516C102.129 15.7841 102.571 14.7875 102.559 13.7423C102.546 12.5148 101.923 11.4573 100.994 10.7685C101.908 10.0562 102.507 8.97928 102.494 7.76283C102.483 6.71768 102.019 5.731 101.224 5.01634C100.43 4.30313 99.3692 3.91644 98.2764 3.92838C97.7413 3.93423 97.2256 4.03118 96.7572 4.20959C96.6061 3.40163 96.183 2.65835 95.5483 2.08822C94.7546 1.375 93.6934 0.988328 92.6006 1.00027C91.5078 1.01221 90.4559 1.42198 89.6775 2.15236C89.0558 2.73623 88.6487 3.48858 88.5155 4.29963C88.0434 4.13151 87.5254 4.04585 86.9904 4.0517C85.8979 4.06364 84.8457 4.47339 84.0677 5.20379C83.2878 5.93568 82.8461 6.93226 82.8576 7.97737C82.871 9.19386 83.4932 10.2574 84.4226 10.9496C83.5092 11.6586 82.9094 12.7294 82.9228 13.9569Z" fill="url(#paint1_linear_1409_768)" stroke="white"/>
<defs>
<linearGradient id="paint0_linear_1409_768" x1="7.46021" y1="105.934" x2="31.1442" y2="-8.18899" gradientUnits="userSpaceOnUse">
<stop offset="0.285" stop-color="#0D5F00"/>
<stop offset="1" stop-color="#FFF500"/>
</linearGradient>
<linearGradient id="paint1_linear_1409_768" x1="71.6393" y1="-10.3059" x2="71.3342" y2="-38.2106" gradientUnits="userSpaceOnUse">
<stop stop-color="#216C06"/>
<stop offset="1" stop-color="#FFE81D"/>
</linearGradient>
</defs>
</svg>
