<svg width="32" height="31" viewBox="0 0 32 31" fill="none" xmlns="http://www.w3.org/2000/svg">
<path d="M31.2368 15.3068C31.2417 18.1411 30.3627 20.9121 28.7129 23.2637C27.3523 25.21 25.5126 26.8048 23.3566 27.907C21.2005 29.0093 18.7945 29.5851 16.3513 29.5835C13.9081 29.5851 11.5021 29.0093 9.34604 27.907C7.19 26.8048 5.35035 25.21 3.98974 23.2637C2.69425 21.4115 1.86922 19.294 1.58078 17.081C1.29234 14.8679 1.54851 12.6208 2.32876 10.5198C3.10901 8.41881 4.39164 6.52236 6.07382 4.98248C7.756 3.4426 9.79094 2.30214 12.0155 1.6525C14.2401 1.00287 16.5924 0.862141 18.8839 1.2416C21.1754 1.62106 23.3423 2.51015 25.211 3.83759C27.0797 5.16504 28.5981 6.89392 29.6445 8.88564C30.6909 10.8774 31.2363 13.0765 31.2368 15.3068Z" stroke="white"/>
<path d="M18.3649 9.22616C18.3649 9.77308 18.1527 10.2976 17.775 10.6843C17.3973 11.0711 16.885 11.2883 16.3509 11.2883V12.6631C16.7917 12.6631 17.2282 12.5742 17.6354 12.4015C18.0427 12.2288 18.4127 11.9756 18.7244 11.6565C19.0361 11.3373 19.2834 10.9584 19.4521 10.5414C19.6207 10.1244 19.7076 9.67751 19.7076 9.22616H18.3649ZM16.3509 11.2883C15.8168 11.2883 15.3045 11.0711 14.9268 10.6843C14.5491 10.2976 14.3369 9.77308 14.3369 9.22616H12.9942C12.9942 9.67751 13.0811 10.1244 13.2497 10.5414C13.4184 10.9584 13.6657 11.3373 13.9774 11.6565C14.6069 12.301 15.4607 12.6631 16.3509 12.6631V11.2883ZM14.3369 9.22616C14.3369 8.67923 14.5491 8.15471 14.9268 7.76797C15.3045 7.38124 15.8168 7.16397 16.3509 7.16397V5.78918C15.4607 5.78918 14.6069 6.15129 13.9774 6.79585C13.3479 7.44041 12.9942 8.31462 12.9942 9.22616H14.3369ZM16.3509 7.16397C16.885 7.16397 17.3973 7.38124 17.775 7.76797C18.1527 8.15471 18.3649 8.67923 18.3649 9.22616H19.7076C19.7076 8.31462 19.3539 7.44041 18.7244 6.79585C18.0949 6.15129 17.2411 5.78918 16.3509 5.78918V7.16397ZM7.17511 21.4013L6.53063 21.2061L6.42725 21.5649L6.6649 21.8495L7.17511 21.4013ZM25.5267 21.4013L26.0369 21.8495L26.2746 21.5649L26.1698 21.2061L25.5267 21.4013ZM12.3229 18.1623H20.3789V16.7875H12.3229V18.1623ZM12.3229 16.7875C11.0218 16.7877 9.75544 17.2179 8.71213 18.0139C7.66882 18.81 6.90288 19.9295 6.53063 21.2061L7.81825 21.5979C8.10808 20.6051 8.70296 19.7346 9.5145 19.1157C10.3261 18.4967 11.311 18.1624 12.3229 18.1623V16.7875ZM16.3509 25.0362C14.7038 25.038 13.0759 24.6739 11.5796 23.969C10.0833 23.264 8.7542 22.2351 7.68398 20.9531L6.6649 21.8495C7.86128 23.2817 9.34679 24.4312 11.019 25.2187C12.6912 26.0062 14.5103 26.413 16.3509 26.411V25.0362ZM20.3789 18.1623C21.391 18.1625 22.3761 18.497 23.1876 19.1162C23.9992 19.7354 24.594 20.6063 24.8836 21.5993L26.1698 21.2061C25.7976 19.9295 25.033 18.81 23.9897 18.0139C22.9464 17.2179 21.68 16.7877 20.3789 16.7875V18.1623ZM25.0178 20.9531C23.9476 22.2351 22.6185 23.264 21.1222 23.969C19.6259 24.6739 17.998 25.038 16.3509 25.0362V26.411C18.1915 26.413 20.0106 26.0062 21.6828 25.2187C23.355 24.4312 24.8405 23.2817 26.0369 21.8495L25.0178 20.9531Z" fill="white"/>
</svg>
