<svg width="31" height="29" viewBox="0 0 31 29" fill="none" xmlns="http://www.w3.org/2000/svg">
<path fill-rule="evenodd" clip-rule="evenodd" d="M16.4887 13.3568H23.4353C23.6985 13.3568 23.9509 13.4571 24.137 13.6355C24.3231 13.814 24.4276 14.0561 24.4276 14.3085C24.4276 14.5609 24.3231 14.8029 24.137 14.9814C23.9509 15.1599 23.6985 15.2601 23.4353 15.2601H16.4887V21.9218C16.4887 22.1742 16.3842 22.4163 16.198 22.5947C16.0119 22.7732 15.7595 22.8735 15.4963 22.8735C15.2331 22.8735 14.9807 22.7732 14.7946 22.5947C14.6085 22.4163 14.504 22.1742 14.504 21.9218V15.2601H7.55741C7.29421 15.2601 7.0418 15.1599 6.8557 14.9814C6.66959 14.8029 6.56504 14.5609 6.56504 14.3085C6.56504 14.0561 6.66959 13.814 6.8557 13.6355C7.0418 13.4571 7.29421 13.3568 7.55741 13.3568H14.504V6.69512C14.504 6.44272 14.6085 6.20066 14.7946 6.02219C14.9807 5.84371 15.2331 5.74345 15.4963 5.74345C15.7595 5.74345 16.0119 5.84371 16.198 6.02219C16.3842 6.20066 16.4887 6.44272 16.4887 6.69512V13.3568ZM15.4963 0.0334473C23.7052 0.0334473 30.3818 6.43626 30.3818 14.3085C30.3818 22.1806 23.7052 28.5835 15.4963 28.5835C7.28748 28.5835 0.61084 22.1806 0.61084 14.3085C0.61084 6.43626 7.28748 0.0334473 15.4963 0.0334473ZM15.4963 1.71219C12.0127 1.71219 8.6718 3.03929 6.20852 5.40155C3.74523 7.76381 2.36137 10.9677 2.36137 14.3085C2.36137 17.6492 3.74523 20.8531 6.20852 23.2154C8.6718 25.5776 12.0127 26.9047 15.4963 26.9047C18.9799 26.9047 22.3209 25.5776 24.7842 23.2154C27.2474 20.8531 28.6313 17.6492 28.6313 14.3085C28.6313 10.9677 27.2474 7.76381 24.7842 5.40155C22.3209 3.03929 18.9799 1.71219 15.4963 1.71219Z" fill="white"/>
</svg>
