<svg width="34" height="33" viewBox="0 0 34 33" fill="none" xmlns="http://www.w3.org/2000/svg">
<rect width="33.1631" height="33" rx="16" fill="#228B22" fill-opacity="0.7"/>
<path d="M12.616 24C12.168 24 11.7867 23.8427 11.472 23.528C11.1573 23.2133 11 22.8323 11 22.385V10H10V9.00001H14V8.23001H20V9.00001H24V10H23V22.385C23 22.845 22.846 23.2293 22.538 23.538C22.23 23.8467 21.8453 24.0007 21.384 24H12.616ZM22 10H12V22.385C12 22.5643 12.0577 22.7117 12.173 22.827C12.2883 22.9423 12.436 23 12.616 23H21.385C21.5383 23 21.6793 22.936 21.808 22.808C21.9367 22.68 22.0007 22.5387 22 22.384V10ZM14.808 21H15.808V12H14.808V21ZM18.192 21H19.192V12H18.192V21Z" fill="white"/>
</svg>
