<svg width="34" height="33" viewBox="0 0 34 33" fill="none" xmlns="http://www.w3.org/2000/svg">
<rect width="33.1631" height="33" rx="16" fill="#228B22" fill-opacity="0.7"/>
<path d="M11.3886 27C10.8652 27 10.4363 26.7975 10.1018 26.3924C9.76732 25.9873 9.59964 25.4938 9.59878 24.9117V13.0682L7.42677 7.45018H5V6H8.30675L10.3007 11.1873H27.3297C27.7309 11.1873 28.0359 11.3753 28.2448 11.7514C28.4536 12.1275 28.4636 12.5103 28.2747 12.8999L25.146 19.7578C25.9839 19.839 26.685 20.2267 27.2491 20.9209C27.8123 21.614 28.094 22.4319 28.094 23.3746C28.094 24.3761 27.782 25.2308 27.1581 25.9385C26.5325 26.6462 25.7721 27 24.8769 27C23.9662 27 23.1971 26.6462 22.5697 25.9385C21.9423 25.2308 21.6287 24.3761 21.6287 23.3746C21.6287 22.9047 21.6993 22.4701 21.8405 22.0709C21.9826 21.6716 22.1845 21.3158 22.4462 21.0035L16.3631 20.4017L13.1135 25.8109C12.9159 26.1463 12.6646 26.4281 12.3596 26.6563C12.0537 26.8854 11.7309 27 11.3886 27ZM23.7006 19.7071L26.9189 12.6375H10.8492L12.5169 16.988C12.6945 17.4714 12.9853 17.8765 13.3891 18.2032C13.7929 18.53 14.2942 18.7263 14.893 18.792L23.7006 19.7071ZM11.3951 25.5136C11.5719 25.5136 11.7859 25.3415 12.0372 24.9973L14.9151 20.2509C14.0364 20.13 13.3189 19.869 12.7625 19.4678C12.2054 19.0675 11.7833 18.5329 11.4965 17.8639L10.8986 16.3021V24.919C10.8986 25.0998 10.9419 25.2438 11.0286 25.3512C11.1152 25.4594 11.2366 25.5136 11.3951 25.5136ZM24.847 25.5774C25.4103 25.5774 25.876 25.3661 26.2443 24.9437C26.6126 24.5212 26.7968 24.0073 26.7968 23.4021C26.7968 22.7737 26.6126 22.2541 26.2443 21.8432C25.876 21.4323 25.4103 21.2269 24.847 21.2269C24.3054 21.2269 23.8448 21.4323 23.4653 21.8432C23.0858 22.2541 22.8964 22.7737 22.8973 23.4021C22.8973 24.0064 23.0866 24.5202 23.4653 24.9437C23.844 25.3671 24.3046 25.5783 24.847 25.5774Z" fill="white"/>
</svg>
