<svg width="31" height="29" viewBox="0 0 31 29" fill="none" xmlns="http://www.w3.org/2000/svg">
<path d="M27.4508 11.3797C27.4508 11.0884 27.3304 10.8091 27.116 10.6032C26.9017 10.3972 26.611 10.2816 26.3079 10.2816C26.0048 10.2816 25.7141 10.3972 25.4998 10.6032C25.2855 10.8091 25.1651 11.0884 25.1651 11.3797H27.4508ZM6.11765 11.3797C6.11765 11.0884 5.99724 10.8091 5.78291 10.6032C5.56859 10.3972 5.2779 10.2816 4.9748 10.2816C4.6717 10.2816 4.38101 10.3972 4.16669 10.6032C3.95236 10.8091 3.83195 11.0884 3.83195 11.3797H6.11765ZM28.5479 15.084C28.6525 15.1919 28.7787 15.2784 28.9189 15.3384C29.0591 15.3984 29.2104 15.4307 29.3639 15.4333C29.5173 15.4359 29.6697 15.4088 29.812 15.3536C29.9543 15.2983 30.0836 15.2161 30.1921 15.1118C30.3006 15.0076 30.3862 14.8834 30.4437 14.7466C30.5012 14.6099 30.5294 14.4634 30.5267 14.316C30.524 14.1685 30.4904 14.0231 30.4279 13.8884C30.3655 13.7537 30.2754 13.6325 30.1631 13.532L28.5479 15.084ZM15.6414 1.1306L16.449 0.354595C16.2347 0.148954 15.9442 0.0334473 15.6414 0.0334473C15.3385 0.0334473 15.048 0.148954 14.8337 0.354595L15.6414 1.1306ZM1.1196 13.532C1.00732 13.6325 0.917259 13.7537 0.854795 13.8884C0.792332 14.0231 0.758745 14.1685 0.756037 14.316C0.75333 14.4634 0.781558 14.6099 0.839037 14.7466C0.896516 14.8834 0.982068 15.0076 1.09059 15.1118C1.19911 15.2161 1.32838 15.2983 1.47069 15.3536C1.61299 15.4088 1.76542 15.4359 1.91887 15.4333C2.07232 15.4307 2.22365 15.3984 2.36384 15.3384C2.50403 15.2784 2.6302 15.1919 2.73482 15.084L1.1196 13.532ZM8.02239 28.5835H23.2603V26.3872H8.02239V28.5835ZM27.4508 24.557V11.3797H25.1651V24.557H27.4508ZM6.11765 24.557V11.3797H3.83195V24.557H6.11765ZM30.1631 13.532L16.449 0.354595L14.8337 1.9066L28.5479 15.084L30.1631 13.532ZM14.8337 0.354595L1.1196 13.532L2.73482 15.084L16.449 1.9066L14.8337 0.354595ZM23.2603 28.5835C24.3717 28.5835 25.4376 28.1593 26.2234 27.4042C27.0093 26.649 27.4508 25.6249 27.4508 24.557H25.1651C25.1651 25.5673 24.3117 26.3872 23.2603 26.3872V28.5835ZM8.02239 26.3872C6.97097 26.3872 6.11765 25.5673 6.11765 24.557H3.83195C3.83195 25.6249 4.27345 26.649 5.0593 27.4042C5.84516 28.1593 6.91102 28.5835 8.02239 28.5835V26.3872Z" fill="white"/>
</svg>
