<svg width="122" height="111" viewBox="0 0 122 111" fill="none" xmlns="http://www.w3.org/2000/svg">
<g clip-path="url(#clip0_1_5)">
<path d="M68.75 111.125C68.75 88 48.2642 69.5 23 69.5C23 80.5396 27.8201 91.1271 36.3999 98.9333C44.9797 106.74 56.6163 111.125 68.75 111.125ZM68.75 111.125C68.75 88 89.0833 69.5 114.5 69.5C114.5 80.5396 109.68 91.1271 101.1 98.9333C92.5203 106.74 80.8837 111.125 68.75 111.125ZM68.75 34.8125C72.1205 34.8125 75.3529 36.0307 77.7361 38.1991C80.1194 40.3675 81.4583 43.3084 81.4583 46.375C81.4583 49.4416 80.1194 52.3825 77.7361 54.5509C75.3529 56.7193 72.1205 57.9375 68.75 57.9375C65.3795 57.9375 62.1471 56.7193 59.7639 54.5509C57.3806 52.3825 56.0417 49.4416 56.0417 46.375C56.0417 43.3084 57.3806 40.3675 59.7639 38.1991C62.1471 36.0307 65.3795 34.8125 68.75 34.8125ZM36.2167 56.7812C36.2167 59.8478 37.5556 62.7888 39.9389 64.9572C42.3221 67.1256 45.5545 68.3438 48.925 68.3438C51.6192 68.3438 54.11 67.5575 56.0417 66.3088V67.1875C56.0417 70.2541 57.3806 73.195 59.7639 75.3634C62.1471 77.5318 65.3795 78.75 68.75 78.75C72.1205 78.75 75.3529 77.5318 77.7361 75.3634C80.1194 73.195 81.4583 70.2541 81.4583 67.1875V66.3088C83.39 67.5575 85.8808 68.3438 88.575 68.3438C91.9455 68.3438 95.1779 67.1256 97.5611 64.9572C99.9444 62.7888 101.283 59.8478 101.283 56.7812C101.283 52.1562 98.2842 48.225 94.0142 46.375C98.2842 44.525 101.283 40.5475 101.283 35.9688C101.283 32.9022 99.9444 29.9612 97.5611 27.7928C95.1779 25.6244 91.9455 24.4062 88.575 24.4062C85.8808 24.4062 83.39 25.1462 81.4583 26.4412V25.5625C81.4583 22.4959 80.1194 19.555 77.7361 17.3866C75.3529 15.2182 72.1205 14 68.75 14C65.3795 14 62.1471 15.2182 59.7639 17.3866C57.3806 19.555 56.0417 22.4959 56.0417 25.5625V26.4412C54.11 25.1462 51.6192 24.4062 48.925 24.4062C45.5545 24.4062 42.3221 25.6244 39.9389 27.7928C37.5556 29.9612 36.2167 32.9022 36.2167 35.9688C36.2167 40.5475 39.2158 44.525 43.4858 46.375C39.2158 48.225 36.2167 52.1562 36.2167 56.7812Z" fill="url(#paint0_linear_1_5)"/>
<path d="M68.75 111.125C68.75 88 48.2642 69.5 23 69.5C23 80.5396 27.8201 91.1271 36.3999 98.9333C44.9797 106.74 56.6163 111.125 68.75 111.125ZM68.75 111.125C68.75 88 89.0833 69.5 114.5 69.5C114.5 80.5396 109.68 91.1271 101.1 98.9333C92.5203 106.74 80.8837 111.125 68.75 111.125ZM68.75 34.8125C72.1205 34.8125 75.3529 36.0307 77.7361 38.1991C80.1194 40.3675 81.4583 43.3084 81.4583 46.375C81.4583 49.4416 80.1194 52.3825 77.7361 54.5509C75.3529 56.7193 72.1205 57.9375 68.75 57.9375C65.3795 57.9375 62.1471 56.7193 59.7639 54.5509C57.3806 52.3825 56.0417 49.4416 56.0417 46.375C56.0417 43.3084 57.3806 40.3675 59.7639 38.1991C62.1471 36.0307 65.3795 34.8125 68.75 34.8125ZM36.2167 56.7812C36.2167 59.8478 37.5556 62.7888 39.9389 64.9572C42.3221 67.1256 45.5545 68.3438 48.925 68.3438C51.6192 68.3438 54.11 67.5575 56.0417 66.3088V67.1875C56.0417 70.2541 57.3806 73.195 59.7639 75.3634C62.1471 77.5318 65.3795 78.75 68.75 78.75C72.1205 78.75 75.3529 77.5318 77.7361 75.3634C80.1194 73.195 81.4583 70.2541 81.4583 67.1875V66.3088C83.39 67.5575 85.8808 68.3438 88.575 68.3438C91.9455 68.3438 95.1779 67.1256 97.5611 64.9572C99.9444 62.7888 101.283 59.8478 101.283 56.7812C101.283 52.1562 98.2842 48.225 94.0142 46.375C98.2842 44.525 101.283 40.5475 101.283 35.9688C101.283 32.9022 99.9444 29.9612 97.5611 27.7928C95.1779 25.6244 91.9455 24.4062 88.575 24.4062C85.8808 24.4062 83.39 25.1462 81.4583 26.4412V25.5625C81.4583 22.4959 80.1194 19.555 77.7361 17.3866C75.3529 15.2182 72.1205 14 68.75 14C65.3795 14 62.1471 15.2182 59.7639 17.3866C57.3806 19.555 56.0417 22.4959 56.0417 25.5625V26.4412C54.11 25.1462 51.6192 24.4062 48.925 24.4062C45.5545 24.4062 42.3221 25.6244 39.9389 27.7928C37.5556 29.9612 36.2167 32.9022 36.2167 35.9688C36.2167 40.5475 39.2158 44.525 43.4858 46.375C39.2158 48.225 36.2167 52.1562 36.2167 56.7812Z" stroke="white"/>
<path d="M76.75 46.375C76.75 50.241 73.1683 53.375 68.75 53.375C64.3317 53.375 60.75 50.241 60.75 46.375C60.75 42.509 64.3317 39.375 68.75 39.375C73.1683 39.375 76.75 42.509 76.75 46.375Z" fill="#FFA462"/>
<path d="M76.75 46.375C76.75 50.241 73.1683 53.375 68.75 53.375C64.3317 53.375 60.75 50.241 60.75 46.375C60.75 42.509 64.3317 39.375 68.75 39.375C73.1683 39.375 76.75 42.509 76.75 46.375Z" stroke="black"/>
</g>
<defs>
<linearGradient id="paint0_linear_1_5" x1="68.75" y1="111.125" x2="68.75" y2="14" gradientUnits="userSpaceOnUse">
<stop stop-color="#216C06"/>
<stop offset="1" stop-color="#FFE81D"/>
</linearGradient>
<clipPath id="clip0_1_5">
<rect width="122" height="111" fill="white"/>
</clipPath>
</defs>
</svg>
