<svg width="52" height="56" viewBox="0 0 52 56" fill="none" xmlns="http://www.w3.org/2000/svg">
<path d="M2 30.3989H1V31.3989C1 37.4928 3.65895 43.3158 8.35611 47.5936C12.8126 51.6522 18.76 54.0096 25 54.2378V54.256H26H27V54.2378C33.24 54.0096 39.1874 51.6522 43.6439 47.5936C48.341 43.3158 51 37.4928 51 31.3989V30.3989H50C38.6359 30.3989 29.03 37.2362 25.997 46.7906C22.9467 37.2352 13.2967 30.3989 2 30.3989ZM2.02511 32.3989C2.29811 37.832 4.78805 42.9915 9.02944 46.8542C13.2941 50.7381 18.9984 53.0093 25 53.2371L2.02511 32.3989ZM26 14.1846C27.5315 14.1846 28.9836 14.7395 30.0407 15.7022C31.0947 16.6621 31.6667 17.9428 31.6667 19.256C31.6667 20.5693 31.0947 21.85 30.0407 22.8098C28.9836 23.7725 27.5315 24.3275 26 24.3275C24.4685 24.3275 23.0164 23.7725 21.9593 22.8098C20.9053 21.85 20.3333 20.5693 20.3333 19.256C20.3333 17.9428 20.9053 16.6621 21.9593 15.7022C23.0164 14.7395 24.4685 14.1846 26 14.1846ZM7.93333 24.7203C7.93333 26.6276 8.7661 28.4354 10.2126 29.7528C11.656 31.0674 13.5953 31.7918 15.6 31.7918C16.6017 31.7918 17.5611 31.6094 18.4269 31.2871C18.6818 32.7789 19.4484 34.1569 20.6126 35.2171C22.056 36.5316 23.9953 37.256 26 37.256C28.0047 37.256 29.944 36.5316 31.3874 35.2171C32.5516 34.1569 33.3182 32.7789 33.5731 31.2871C34.4389 31.6094 35.3983 31.7918 36.4 31.7918C38.4047 31.7918 40.344 31.0674 41.7874 29.7528C43.2339 28.4354 44.0667 26.6276 44.0667 24.7203C44.0667 22.4723 42.9342 20.5271 41.2328 19.2547C42.9352 17.9759 44.0667 16.0196 44.0667 13.7918C44.0667 11.8845 43.2339 10.0766 41.7874 8.75927C40.344 7.44473 38.4047 6.72033 36.4 6.72033C35.4049 6.72033 34.4438 6.89109 33.5714 7.21488C33.3147 5.72698 32.5489 4.35284 31.3874 3.29498C29.944 1.98045 28.0047 1.25604 26 1.25604C23.9953 1.25604 22.056 1.98045 20.6126 3.29498C19.4511 4.35284 18.6853 5.72698 18.4286 7.21488C17.5562 6.89109 16.5951 6.72033 15.6 6.72033C13.5953 6.72033 11.656 7.44473 10.2126 8.75927C8.7661 10.0766 7.93333 11.8845 7.93333 13.7918C7.93333 16.0196 9.06479 17.9759 10.7672 19.2547C9.0658 20.5272 7.93333 22.4723 7.93333 24.7203Z" fill="url(#paint0_linear_185_62)" stroke="white" stroke-width="2"/>
<path d="M26 23.9023C28.9941 23.9023 31.5526 21.7965 31.5526 19.0487C31.5526 16.3008 28.9941 14.195 26 14.195C23.0058 14.195 20.4473 16.3008 20.4473 19.0487C20.4473 21.7965 23.0058 23.9023 26 23.9023Z" fill="#FFA462" stroke="white"/>
<defs>
<linearGradient id="paint0_linear_185_62" x1="26" y1="53.256" x2="26" y2="2.25604" gradientUnits="userSpaceOnUse">
<stop stop-color="#195106"/>
<stop offset="1" stop-color="#9A8B01"/>
</linearGradient>
</defs>
</svg>
