<svg width="24" height="24" viewBox="0 0 24 24" fill="none" xmlns="http://www.w3.org/2000/svg">
<path d="M21.2501 12C21.2519 13.2145 21.0138 14.4174 20.5496 15.5397C20.0855 16.662 19.4042 17.6816 18.5451 18.54C17.6857 19.3995 16.6653 20.0813 15.5423 20.5463C14.4192 21.0113 13.2156 21.2504 12.0001 21.25C10.6919 21.2532 9.39802 20.9771 8.2051 20.44L4.3381 21.012C4.1461 21.0433 3.94935 21.0274 3.76494 20.9654C3.58052 20.9034 3.41403 20.7974 3.2799 20.6565C3.14578 20.5155 3.0481 20.344 2.99533 20.1568C2.94256 19.9695 2.9363 19.7722 2.9771 19.582L3.5141 15.659C3.00454 14.5068 2.74418 13.2599 2.7501 12C2.74844 10.7855 2.98652 9.58265 3.45071 8.46037C3.91489 7.33809 4.59604 6.31848 5.4551 5.46C6.31449 4.60042 7.33486 3.91864 8.4579 3.45364C9.58093 2.98864 10.7846 2.74954 12.0001 2.75C14.4547 2.75016 16.8088 3.72491 18.5451 5.46C19.4038 6.31875 20.0847 7.33841 20.5489 8.46063C21.013 9.58284 21.2513 10.7856 21.2501 12Z" stroke="black" stroke-width="1.5" stroke-linecap="round" stroke-linejoin="round"/>
</svg>
