<svg width="30" height="29" viewBox="0 0 30 29" fill="none" xmlns="http://www.w3.org/2000/svg">
<path fill-rule="evenodd" clip-rule="evenodd" d="M8.91068 8.40173C8.35771 8.93202 7.91907 9.56157 7.6198 10.2544C7.32053 10.9473 7.1665 11.6899 7.1665 12.4398C7.1665 13.1898 7.32053 13.9324 7.6198 14.6253C7.91907 15.3181 8.35771 15.9477 8.91068 16.478C9.46365 17.0082 10.1201 17.4289 10.8426 17.7159C11.5651 18.0029 12.3395 18.1506 13.1215 18.1506C13.9035 18.1506 14.6779 18.0029 15.4004 17.7159C16.1229 17.4289 16.7793 17.0082 17.3323 16.478C18.4169 15.401 19.017 13.9587 19.0035 12.4615C18.9899 10.9644 18.3637 9.53225 17.2598 8.47357C16.1558 7.41489 14.6624 6.81437 13.1012 6.80136C11.5401 6.78835 10.036 7.36389 8.91306 8.40401M16.4916 15.6717C16.051 16.1036 15.5256 16.4475 14.9455 16.6833C14.3655 16.9192 13.7424 17.0423 13.1124 17.0456C12.4824 17.049 11.858 16.9324 11.2752 16.7027C10.6925 16.473 10.1631 16.1347 9.71767 15.7075C9.27222 15.2802 8.91958 14.7725 8.68016 14.2136C8.44074 13.6548 8.31931 13.0559 8.32289 12.4517C8.32647 11.8476 8.455 11.2501 8.70102 10.6939C8.94705 10.1377 9.30569 9.63378 9.75617 9.21141C10.6529 8.37065 11.8592 7.90294 13.1132 7.90977C14.3673 7.91661 15.568 8.39744 16.4547 9.24792C17.3414 10.0984 17.8426 11.2499 17.8495 12.4525C17.8564 13.6552 17.3684 14.8119 16.4916 15.6717Z" fill="white"/>
<path d="M16.0121 17.9704C15.7888 17.7561 15.6635 17.4655 15.6636 17.1626C15.6636 17.0126 15.6945 16.8641 15.7544 16.7255C15.8143 16.5869 15.9021 16.461 16.0127 16.355C16.1234 16.249 16.2547 16.1649 16.3992 16.1075C16.5438 16.0502 16.6987 16.0207 16.8551 16.0208C17.171 16.0209 17.4739 16.1413 17.6972 16.3556L21.0649 19.5863C21.1786 19.6917 21.2693 19.8177 21.3317 19.957C21.3941 20.0963 21.427 20.2462 21.4284 20.3978C21.4297 20.5494 21.3996 20.6998 21.3397 20.8402C21.2799 20.9805 21.1914 21.108 21.0796 21.2153C20.9678 21.3225 20.8349 21.4073 20.6885 21.4647C20.5422 21.5221 20.3853 21.551 20.2272 21.5497C20.0691 21.5484 19.9128 21.5169 19.7676 21.457C19.6223 21.3972 19.4909 21.3102 19.381 21.2011L16.0121 17.9704Z" fill="white"/>
<path fill-rule="evenodd" clip-rule="evenodd" d="M15.0686 27.4415C22.6316 27.4415 28.7633 21.5613 28.7633 14.3085C28.7633 7.05561 22.6316 1.17545 15.0686 1.17545C7.50558 1.17545 1.37395 7.05561 1.37395 14.3085C1.37395 21.5613 7.50558 27.4415 15.0686 27.4415ZM15.0686 28.5835C23.2902 28.5835 29.9541 22.1928 29.9541 14.3085C29.9541 6.42408 23.2902 0.0334473 15.0686 0.0334473C6.84704 0.0334473 0.183105 6.42408 0.183105 14.3085C0.183105 22.1928 6.84704 28.5835 15.0686 28.5835Z" fill="white"/>
</svg>
