<svg width="30" height="27" viewBox="0 0 30 27" fill="none" xmlns="http://www.w3.org/2000/svg">
<path d="M8.16292 26.1924C7.49728 26.1924 6.95177 25.9488 6.52638 25.4617C6.10099 24.9745 5.88774 24.3809 5.88664 23.681V9.43721L3.12436 2.68071H0.0380859V0.936646H4.24349L6.7793 7.17516H28.4361C28.9464 7.17516 29.3343 7.40131 29.5999 7.8536C29.8655 8.3059 29.8782 8.76633 29.6379 9.2349L25.659 17.4826C26.7247 17.5802 27.6162 18.0465 28.3337 18.8813C29.05 19.715 29.4081 20.6986 29.4081 21.8323C29.4081 23.0368 29.0114 24.0647 28.2179 24.9158C27.4223 25.7669 26.4552 26.1924 25.3168 26.1924C24.1586 26.1924 23.1805 25.7669 22.3826 24.9158C21.5847 24.0647 21.1858 23.0368 21.1858 21.8323C21.1858 21.2672 21.2756 20.7446 21.4552 20.2644C21.636 19.7842 21.8927 19.3563 22.2256 18.9807L14.4892 18.2569L10.3565 24.7623C10.1053 25.1658 9.78568 25.5047 9.39776 25.7791C9.00873 26.0547 8.59822 26.1924 8.16292 26.1924ZM23.8208 17.4215L27.9138 8.91923H7.47689L9.59778 14.1514C9.8237 14.7328 10.1934 15.2199 10.707 15.6129C11.2205 16.0059 11.8581 16.242 12.6196 16.321L23.8208 17.4215ZM8.17118 24.4048C8.396 24.4048 8.6682 24.1978 8.9878 23.7839L12.6477 18.0756C11.5302 17.9302 10.6177 17.6163 9.91021 17.1338C9.20159 16.6524 8.6649 16.0094 8.30012 15.2048L7.53971 13.3265V23.6897C7.53971 23.9071 7.59481 24.0804 7.70502 24.2094C7.81522 24.3397 7.96951 24.4048 8.17118 24.4048ZM25.2788 24.4815C25.9951 24.4815 26.5875 24.2275 27.0558 23.7194C27.5242 23.2112 27.7584 22.5933 27.7584 21.8654C27.7584 21.1097 27.5242 20.4847 27.0558 19.9905C26.5875 19.4964 25.9951 19.2493 25.2788 19.2493C24.59 19.2493 24.0043 19.4964 23.5216 19.9905C23.0389 20.4847 22.7981 21.1097 22.7992 21.8654C22.7992 22.5921 23.04 23.2101 23.5216 23.7194C24.0032 24.2286 24.5889 24.4827 25.2788 24.4815Z" fill="white"/>
</svg>
