<svg width="24" height="21" viewBox="0 0 24 21" fill="none" xmlns="http://www.w3.org/2000/svg">
<path d="M6.38864 21C5.86524 21 5.4363 20.7975 5.10181 20.3924C4.76732 19.9873 4.59964 19.4938 4.59878 18.9117V7.06816L2.42677 1.45018H0V0H3.30675L5.30068 5.18728H22.3297C22.7309 5.18728 23.0359 5.37532 23.2448 5.7514C23.4536 6.12748 23.4636 6.51032 23.2747 6.89994L20.146 13.7578C20.9839 13.839 21.685 14.2267 22.2491 14.9209C22.8123 15.614 23.094 16.4319 23.094 17.3746C23.094 18.3761 22.782 19.2308 22.1581 19.9385C21.5325 20.6462 20.7721 21 19.8769 21C18.9662 21 18.1971 20.6462 17.5697 19.9385C16.9423 19.2308 16.6287 18.3761 16.6287 17.3746C16.6287 16.9047 16.6993 16.4701 16.8405 16.0709C16.9826 15.6716 17.1845 15.3158 17.4462 15.0035L11.3631 14.4017L8.1135 19.8109C7.91593 20.1463 7.66463 20.4281 7.3596 20.6563C7.05371 20.8854 6.73092 21 6.38864 21ZM18.7006 13.7071L21.9189 6.63746H5.84921L7.51688 10.988C7.69453 11.4714 7.98525 11.8765 8.38907 12.2032C8.79288 12.53 9.29418 12.7263 9.89296 12.792L18.7006 13.7071ZM6.39513 19.5136C6.57191 19.5136 6.78595 19.3415 7.03725 18.9973L9.91506 14.2509C9.03638 14.13 8.31887 13.869 7.76255 13.4678C7.20536 13.0675 6.78335 12.5329 6.49652 11.8639L5.8986 10.3021V18.919C5.8986 19.0998 5.94193 19.2438 6.02858 19.3512C6.11524 19.4594 6.23656 19.5136 6.39513 19.5136ZM19.847 19.5774C20.4103 19.5774 20.876 19.3661 21.2443 18.9437C21.6126 18.5212 21.7968 18.0073 21.7968 17.4021C21.7968 16.7737 21.6126 16.2541 21.2443 15.8432C20.876 15.4323 20.4103 15.2269 19.847 15.2269C19.3054 15.2269 18.8448 15.4323 18.4653 15.8432C18.0858 16.2541 17.8964 16.7737 17.8973 17.4021C17.8973 18.0064 18.0866 18.5202 18.4653 18.9437C18.844 19.3671 19.3046 19.5783 19.847 19.5774Z" fill="white"/>
</svg>
